<svg version="1.1" id="Layer_1" xmlns="http://www.w3.org/2000/svg" xmlns:xlink="http://www.w3.org/1999/xlink" x="0px" y="0px"
	 width="100%" viewBox="0 0 413 420" enable-background="new 0 0 413 420" xml:space="preserve">
<path fill="#FCFCFC" opacity="1.000000" stroke="none" 
	d="
M414.000000,107.000000 
	C414.000000,211.999985 414.000000,316.499969 414.000000,421.000000 
	C276.333374,421.000000 138.666718,421.000000 1.000065,421.000000 
	C1.000043,281.000031 1.000043,141.000092 1.000022,1.000103 
	C138.666611,1.000068 276.333221,1.000068 413.999908,1.000034 
	C414.000000,36.166668 414.000000,71.333336 414.000000,107.000000 
M73.500000,417.005035 
	C172.650253,417.005035 271.800507,417.005554 370.950775,417.004639 
	C393.356079,417.004456 409.999817,400.340027 410.001465,377.857544 
	C410.009399,267.875549 410.005035,157.893555 410.005035,47.911560 
	C410.005035,46.300453 410.005035,44.689346 410.005035,42.712181 
	C388.707306,42.712181 367.945709,42.712181 346.651794,42.712181 
	C346.651794,29.944611 346.651794,17.536081 346.651794,5.045299 
	C232.204254,5.045299 118.294884,5.045299 3.994898,5.045299 
	C3.994898,6.888600 3.994899,8.517265 3.994899,10.145930 
	C3.994894,129.626373 3.994437,249.106812 3.998818,368.587250 
	C3.998892,370.586334 4.005009,372.587860 4.097114,374.584137 
	C5.196184,398.405090 24.660187,416.991913 48.503929,417.004395 
	C56.502621,417.008575 64.501312,417.005035 73.500000,417.005035 
z"/>
<path fill="#131313" opacity="1.000000" stroke="none" 
	d="
M73.000000,417.005035 
	C64.501312,417.005035 56.502621,417.008575 48.503929,417.004395 
	C24.660187,416.991913 5.196184,398.405090 4.097114,374.584137 
	C4.005009,372.587860 3.998892,370.586334 3.998818,368.587250 
	C3.994437,249.106812 3.994894,129.626373 3.994899,10.145930 
	C3.994899,8.517265 3.994898,6.888600 3.994898,5.045299 
	C118.294884,5.045299 232.204254,5.045299 346.651794,5.045299 
	C346.651794,17.536081 346.651794,29.944611 346.651794,42.712181 
	C367.945709,42.712181 388.707306,42.712181 410.005035,42.712181 
	C410.005035,44.689346 410.005035,46.300453 410.005035,47.911560 
	C410.005035,157.893555 410.009399,267.875549 410.001465,377.857544 
	C409.999817,400.340027 393.356079,417.004456 370.950775,417.004639 
	C271.800507,417.005554 172.650253,417.005035 73.000000,417.005035 
M169.500076,17.181026 
	C118.728699,17.181026 67.957314,17.181026 16.844244,17.181026 
	C16.844244,19.051226 16.844242,20.360941 16.844244,21.670656 
	C16.844280,137.992386 16.837305,254.314133 16.881784,370.635864 
	C16.882984,373.773224 17.036089,377.013519 17.805960,380.030365 
	C21.852625,395.887787 33.966415,404.466949 52.102551,404.469788 
	C147.426376,404.484772 242.750214,404.478119 338.074036,404.465515 
	C339.631836,404.465302 341.189667,404.295197 343.709320,404.148315 
	C334.586639,394.175171 333.848145,382.739838 333.858368,370.880554 
	C333.958252,255.058853 333.918488,139.237030 333.918488,23.415241 
	C333.918488,21.473129 333.918518,19.531019 333.918518,17.181028 
	C279.076050,17.181028 224.788071,17.181028 169.500076,17.181026 
M350.483398,55.527069 
	C345.545166,54.757660 346.737061,58.356949 346.736511,60.925938 
	C346.714111,165.745712 346.716187,270.565491 346.726013,375.385254 
	C346.726196,377.382355 346.778961,379.385651 346.938538,381.375519 
	C347.628937,389.985657 351.884430,396.522888 359.199493,400.816315 
	C376.152435,410.766479 397.559235,398.670563 397.470062,376.348694 
	C397.049286,271.030701 397.282562,165.710037 397.282593,60.390316 
	C397.282593,58.819752 397.282623,57.249184 397.282623,55.526642 
	C381.475769,55.526642 366.480927,55.526642 350.483398,55.527069 
z"/>
<path fill="#FEFEFE" opacity="1.000000" stroke="none" 
	d="
M170.000092,17.181026 
	C224.788071,17.181028 279.076050,17.181028 333.918518,17.181028 
	C333.918518,19.531019 333.918488,21.473129 333.918488,23.415241 
	C333.918488,139.237030 333.958252,255.058853 333.858368,370.880554 
	C333.848145,382.739838 334.586639,394.175171 343.709320,404.148315 
	C341.189667,404.295197 339.631836,404.465302 338.074036,404.465515 
	C242.750214,404.478119 147.426376,404.484772 52.102551,404.469788 
	C33.966415,404.466949 21.852625,395.887787 17.805960,380.030365 
	C17.036089,377.013519 16.882984,373.773224 16.881784,370.635864 
	C16.837305,254.314133 16.844280,137.992386 16.844244,21.670656 
	C16.844242,20.360941 16.844244,19.051226 16.844244,17.181026 
	C67.957314,17.181026 118.728699,17.181026 170.000092,17.181026 
M162.718781,173.499939 
	C162.718781,155.395950 162.718781,137.291962 162.718781,119.132095 
	C126.458359,119.132095 90.754105,119.132095 55.052925,119.132095 
	C55.052925,144.516434 55.052925,169.583344 55.052925,194.703857 
	C90.989555,194.703857 126.687836,194.703857 162.718765,194.703857 
	C162.718765,187.767380 162.718765,181.133606 162.718781,173.499939 
M201.510529,271.150909 
	C197.082794,271.150909 192.655045,271.150909 188.267761,271.150909 
	C188.267761,296.838470 188.267761,321.897186 188.267761,346.883514 
	C224.243317,346.883514 259.937195,346.883514 295.624176,346.883514 
	C295.624176,321.546356 295.624176,296.512939 295.624176,271.150909 
	C264.372345,271.150909 233.439407,271.150909 201.510529,271.150909 
M130.500244,74.460678 
	C105.386467,74.460678 80.272690,74.460678 55.025791,74.460678 
	C55.025791,78.903328 55.025791,82.831978 55.025791,86.852745 
	C135.395676,86.852745 215.547638,86.852745 295.635498,86.852745 
	C295.635498,82.609245 295.635498,78.711632 295.635498,74.460747 
	C240.715164,74.460747 186.107712,74.460747 130.500244,74.460678 
M181.500076,226.808304 
	C139.409042,226.808304 97.318016,226.808304 55.018440,226.808304 
	C55.018440,231.182022 55.018440,235.109451 55.018440,239.202087 
	C135.359924,239.202087 215.539291,239.202087 295.656494,239.202087 
	C295.656494,234.931580 295.656494,231.006256 295.656494,226.808304 
	C257.743011,226.808304 220.121552,226.808304 181.500076,226.808304 
M198.531052,125.157310 
	C195.098083,125.157310 191.665131,125.157310 188.357361,125.157310 
	C188.357361,129.832108 188.357361,133.885040 188.357361,137.637756 
	C224.425446,137.637756 260.127411,137.637756 295.629883,137.637756 
	C295.629883,133.338623 295.629883,129.413101 295.629883,125.157310 
	C263.389404,125.157310 231.456558,125.157310 198.531052,125.157310 
M210.500031,175.991714 
	C203.072021,175.991714 195.643997,175.991714 188.378204,175.991714 
	C188.378204,180.606918 188.378204,184.650452 188.378204,188.603424 
	C224.331284,188.603424 259.897400,188.603424 295.638367,188.603424 
	C295.638367,184.320541 295.638367,180.280823 295.638367,175.991714 
	C267.392456,175.991714 239.446243,175.991714 210.500031,175.991714 
M126.500237,277.458099 
	C102.741600,277.458099 78.982964,277.458099 55.170509,277.458099 
	C55.170509,281.977081 55.170509,286.014191 55.170509,289.973267 
	C91.093941,289.973267 126.653061,289.973267 162.470184,289.973267 
	C162.470184,285.850830 162.470184,281.946716 162.470184,277.458160 
	C150.701385,277.458160 139.100815,277.458160 126.500237,277.458099 
M99.500053,328.156036 
	C84.724831,328.156036 69.949608,328.156036 55.168465,328.156036 
	C55.168465,332.758118 55.168465,336.798523 55.168465,340.764709 
	C91.106773,340.764709 126.695305,340.764709 162.332428,340.764709 
	C162.332428,336.464722 162.332428,332.421600 162.332428,328.156036 
	C141.467636,328.156036 120.983849,328.156036 99.500053,328.156036 
z"/>
<path fill="#FFFFFF" opacity="1.000000" stroke="none" 
	d="
M350.984741,55.526855 
	C366.480927,55.526642 381.475769,55.526642 397.282623,55.526642 
	C397.282623,57.249184 397.282593,58.819752 397.282593,60.390316 
	C397.282562,165.710037 397.049286,271.030701 397.470062,376.348694 
	C397.559235,398.670563 376.152435,410.766479 359.199493,400.816315 
	C351.884430,396.522888 347.628937,389.985657 346.938538,381.375519 
	C346.778961,379.385651 346.726196,377.382355 346.726013,375.385254 
	C346.716187,270.565491 346.714111,165.745712 346.736511,60.925938 
	C346.737061,58.356949 345.545166,54.757660 350.984741,55.526855 
z"/>
<path fill="#141414" opacity="1.000000" stroke="none" 
	d="
M162.718781,173.999878 
	C162.718765,181.133606 162.718765,187.767380 162.718765,194.703857 
	C126.687836,194.703857 90.989555,194.703857 55.052925,194.703857 
	C55.052925,169.583344 55.052925,144.516434 55.052925,119.132095 
	C90.754105,119.132095 126.458359,119.132095 162.718781,119.132095 
	C162.718781,137.291962 162.718781,155.395950 162.718781,173.999878 
M69.512939,182.143127 
	C96.244293,182.143127 122.975647,182.143127 149.554352,182.143127 
	C149.554352,164.872040 149.554352,148.319016 149.554352,131.844574 
	C122.114182,131.844574 95.034866,131.844574 67.620735,131.844574 
	C67.620735,148.441620 67.615089,164.727829 67.657875,181.013901 
	C67.658813,181.369934 68.213806,181.724487 69.512939,182.143127 
z"/>
<path fill="#141414" opacity="1.000000" stroke="none" 
	d="
M202.008514,271.150909 
	C233.439407,271.150909 264.372345,271.150909 295.624176,271.150909 
	C295.624176,296.512939 295.624176,321.546356 295.624176,346.883514 
	C259.937195,346.883514 224.243317,346.883514 188.267761,346.883514 
	C188.267761,321.897186 188.267761,296.838470 188.267761,271.150909 
	C192.655045,271.150909 197.082794,271.150909 202.008514,271.150909 
M209.517853,283.851715 
	C206.728058,283.851715 203.938248,283.851715 200.970840,283.851715 
	C200.970840,300.868286 200.970840,317.436737 200.970840,334.136230 
	C228.407379,334.136230 255.595428,334.136230 282.753418,334.136230 
	C282.753418,317.226746 282.753418,300.648438 282.753418,283.851685 
	C258.474792,283.851685 234.495529,283.851685 209.517853,283.851715 
z"/>
<path fill="#161616" opacity="1.000000" stroke="none" 
	d="
M131.000244,74.460709 
	C186.107712,74.460747 240.715164,74.460747 295.635498,74.460747 
	C295.635498,78.711632 295.635498,82.609245 295.635498,86.852745 
	C215.547638,86.852745 135.395676,86.852745 55.025791,86.852745 
	C55.025791,82.831978 55.025791,78.903328 55.025791,74.460678 
	C80.272690,74.460678 105.386467,74.460678 131.000244,74.460709 
z"/>
<path fill="#161616" opacity="1.000000" stroke="none" 
	d="
M182.000092,226.808304 
	C220.121552,226.808304 257.743011,226.808304 295.656494,226.808304 
	C295.656494,231.006256 295.656494,234.931580 295.656494,239.202087 
	C215.539291,239.202087 135.359924,239.202087 55.018440,239.202087 
	C55.018440,235.109451 55.018440,231.182022 55.018440,226.808304 
	C97.318016,226.808304 139.409042,226.808304 182.000092,226.808304 
z"/>
<path fill="#121212" opacity="1.000000" stroke="none" 
	d="
M199.027374,125.157310 
	C231.456558,125.157310 263.389404,125.157310 295.629883,125.157310 
	C295.629883,129.413101 295.629883,133.338623 295.629883,137.637756 
	C260.127411,137.637756 224.425446,137.637756 188.357361,137.637756 
	C188.357361,133.885040 188.357361,129.832108 188.357361,125.157310 
	C191.665131,125.157310 195.098083,125.157310 199.027374,125.157310 
z"/>
<path fill="#121212" opacity="1.000000" stroke="none" 
	d="
M211.000031,175.991714 
	C239.446243,175.991714 267.392456,175.991714 295.638367,175.991714 
	C295.638367,180.280823 295.638367,184.320541 295.638367,188.603424 
	C259.897400,188.603424 224.331284,188.603424 188.378204,188.603424 
	C188.378204,184.650452 188.378204,180.606918 188.378204,175.991714 
	C195.643997,175.991714 203.072021,175.991714 211.000031,175.991714 
z"/>
<path fill="#171717" opacity="1.000000" stroke="none" 
	d="
M127.000244,277.458130 
	C139.100815,277.458160 150.701385,277.458160 162.470184,277.458160 
	C162.470184,281.946716 162.470184,285.850830 162.470184,289.973267 
	C126.653061,289.973267 91.093941,289.973267 55.170509,289.973267 
	C55.170509,286.014191 55.170509,281.977081 55.170509,277.458099 
	C78.982964,277.458099 102.741600,277.458099 127.000244,277.458130 
z"/>
<path fill="#121212" opacity="1.000000" stroke="none" 
	d="
M100.000061,328.156036 
	C120.983849,328.156036 141.467636,328.156036 162.332428,328.156036 
	C162.332428,332.421600 162.332428,336.464722 162.332428,340.764709 
	C126.695305,340.764709 91.106773,340.764709 55.168465,340.764709 
	C55.168465,336.798523 55.168465,332.758118 55.168465,328.156036 
	C69.949608,328.156036 84.724831,328.156036 100.000061,328.156036 
z"/>
<path fill="#FFFFFF" opacity="1.000000" stroke="none" 
	d="
M69.011642,182.111435 
	C68.213806,181.724487 67.658813,181.369934 67.657875,181.013901 
	C67.615089,164.727829 67.620735,148.441620 67.620735,131.844574 
	C95.034866,131.844574 122.114182,131.844574 149.554352,131.844574 
	C149.554352,148.319016 149.554352,164.872040 149.554352,182.143127 
	C122.975647,182.143127 96.244293,182.143127 69.011642,182.111435 
z"/>
<path fill="#FFFFFF" opacity="1.000000" stroke="none" 
	d="
M210.017059,283.851685 
	C234.495529,283.851685 258.474792,283.851685 282.753418,283.851685 
	C282.753418,300.648438 282.753418,317.226746 282.753418,334.136230 
	C255.595428,334.136230 228.407379,334.136230 200.970840,334.136230 
	C200.970840,317.436737 200.970840,300.868286 200.970840,283.851715 
	C203.938248,283.851715 206.728058,283.851715 210.017059,283.851685 
z"/>
</svg>